<?xml version="1.0" encoding="UTF-8" ?>
<!DOCTYPE svg PUBLIC "-//W3C//DTD SVG 1.1//EN" "http://www.w3.org/Graphics/SVG/1.1/DTD/svg11.dtd">
<svg width="256pt" height="256pt" viewBox="0 0 256 256" version="1.1" xmlns="http://www.w3.org/2000/svg">
<path fill="#bdc0bb" d=" M 0.00 0.00 L 1.91 0.00 C 1.43 0.22 0.48 0.66 0.00 0.88 L 0.00 0.00 Z" />
<path fill="#3ebcbd" d=" M 1.91 0.00 L 256.00 0.00 L 256.00 256.00 L 0.00 256.00 L 0.00 0.88 C 0.48 0.66 1.43 0.22 1.91 0.00 Z" />
<path fill="#605d62" d=" M 121.14 79.98 C 123.20 79.47 125.26 78.98 127.33 78.50 C 127.24 86.85 127.25 95.21 127.30 103.56 C 128.20 104.24 129.09 104.93 129.98 105.62 C 128.97 105.82 126.95 106.22 125.94 106.41 C 125.38 105.95 124.26 105.03 123.70 104.57 C 121.14 105.80 118.09 107.20 115.34 105.64 C 109.65 102.97 109.33 93.93 114.39 90.44 C 117.09 88.38 120.64 88.49 123.87 88.59 C 123.45 85.54 125.38 80.89 121.14 79.98 Z" />
<path fill="#605d62" d=" M 38.85 80.54 C 42.26 80.38 45.68 80.39 49.09 80.50 C 48.11 81.21 47.11 81.90 46.12 82.60 C 48.10 88.55 49.96 94.53 51.92 100.47 C 54.31 93.61 56.59 86.70 59.02 79.84 C 60.05 80.21 60.71 80.92 60.99 81.96 C 63.17 88.04 64.69 94.35 67.17 100.31 C 69.15 94.35 71.29 88.43 73.04 82.39 C 72.10 81.76 71.16 81.12 70.22 80.46 C 73.08 80.39 75.94 80.40 78.80 80.50 C 77.70 81.22 76.62 81.94 75.53 82.67 C 72.53 90.15 70.19 97.88 67.13 105.32 C 66.69 105.48 65.79 105.80 65.35 105.95 C 63.17 99.49 60.94 93.05 58.88 86.54 C 56.55 92.45 54.72 98.54 52.40 104.44 C 52.05 105.41 51.32 105.92 50.21 105.98 C 47.63 98.19 45.09 90.39 42.38 82.64 C 41.20 81.94 40.02 81.25 38.85 80.54 Z" />
<path fill="#605d62" d=" M 132.60 80.52 C 137.65 80.75 142.97 79.31 147.84 81.10 C 152.96 82.87 152.72 90.76 148.43 93.33 C 145.59 95.32 142.01 95.19 138.71 95.21 C 138.68 98.02 138.71 100.83 138.85 103.64 C 140.07 104.26 141.30 104.89 142.52 105.51 C 139.04 105.76 135.54 105.75 132.05 105.55 C 133.15 104.93 134.25 104.30 135.34 103.65 C 135.37 96.57 135.46 89.49 135.29 82.41 C 134.38 81.80 133.48 81.17 132.60 80.52 Z" />
<path fill="#3ebcbd" d=" M 138.77 81.81 C 141.49 82.03 145.28 81.31 146.85 84.19 C 148.00 86.82 148.02 90.69 145.44 92.54 C 143.45 93.84 140.97 93.38 138.73 93.41 C 138.71 89.54 138.71 85.68 138.77 81.81 Z" />
<path fill="#605d62" d=" M 82.23 89.22 C 87.60 86.55 95.10 90.76 94.57 97.02 C 95.14 103.30 87.92 108.27 82.23 105.70 C 75.27 103.21 75.40 91.80 82.23 89.22 Z" />
<path fill="#605d62" d=" M 96.62 90.11 C 98.73 89.57 102.09 87.21 102.91 90.47 C 104.83 89.50 106.87 88.81 108.97 88.34 C 108.78 90.34 108.57 92.33 108.29 94.32 C 107.21 93.40 106.43 92.21 105.75 90.98 C 104.71 91.17 103.69 91.43 102.68 91.75 C 102.04 95.66 102.57 99.67 102.43 103.62 C 103.58 104.27 104.74 104.92 105.90 105.56 C 102.65 105.73 99.40 105.72 96.15 105.65 C 97.18 104.86 98.21 104.08 99.25 103.30 C 99.20 99.43 99.20 95.56 99.26 91.69 C 98.60 91.30 97.28 90.51 96.62 90.11 Z" />
<path fill="#605d62" d=" M 153.72 89.98 C 155.60 89.51 157.49 89.04 159.38 88.56 C 159.65 89.05 160.19 90.02 160.46 90.50 C 162.42 89.46 164.52 88.75 166.68 88.26 C 166.34 90.42 165.98 92.58 165.56 94.73 C 164.66 93.46 163.88 92.11 163.02 90.81 C 161.95 91.19 160.89 91.56 159.82 91.94 C 159.81 95.88 159.78 99.82 159.90 103.76 C 161.12 104.28 162.33 104.81 163.54 105.35 C 160.24 105.85 156.90 105.76 153.58 105.55 C 154.58 104.89 155.59 104.25 156.60 103.62 C 156.59 99.58 156.58 95.53 156.65 91.49 C 155.92 91.11 154.45 90.36 153.72 89.98 Z" />
<path fill="#605d62" d=" M 168.46 99.03 C 167.18 93.12 172.89 86.97 178.92 88.67 C 182.64 89.40 184.11 93.28 183.99 96.68 C 179.99 96.77 175.99 96.78 171.99 96.81 C 172.38 98.62 172.29 100.80 173.85 102.10 C 176.60 104.78 180.82 103.50 184.24 103.86 C 179.33 108.45 169.05 106.46 168.46 99.03 Z" />
<path fill="#605d62" d=" M 188.77 89.79 C 191.70 87.72 195.59 88.44 198.76 89.49 C 198.26 91.08 197.73 92.67 197.20 94.25 C 196.62 92.89 196.04 91.52 195.47 90.16 C 193.29 90.18 190.59 89.77 189.28 91.98 C 189.70 96.57 196.16 95.29 198.47 98.52 C 200.48 100.75 198.79 104.15 196.42 105.33 C 193.27 107.11 189.58 106.11 186.32 105.24 C 186.80 103.42 187.30 101.60 187.83 99.79 C 188.47 101.38 189.11 102.98 189.73 104.58 C 192.16 104.88 196.69 104.87 195.87 101.18 C 193.99 98.08 188.97 99.05 187.18 95.74 C 185.86 93.72 186.86 91.03 188.77 89.79 Z" />
<path fill="#605d62" d=" M 203.73 89.75 C 206.61 87.73 210.29 88.69 213.51 89.07 C 213.17 90.89 212.75 92.71 212.15 94.47 C 211.56 93.03 211.00 91.59 210.46 90.13 C 208.15 90.13 204.25 89.74 204.23 93.08 C 206.29 96.33 211.13 95.64 213.47 98.58 C 215.23 100.81 213.78 104.12 211.44 105.28 C 208.32 107.13 204.62 106.12 201.36 105.28 C 201.70 103.54 202.07 101.81 202.48 100.09 C 203.56 101.39 204.15 102.99 204.70 104.58 C 206.65 104.56 208.98 105.07 210.53 103.52 C 211.27 102.25 210.94 100.21 209.40 99.72 C 206.77 98.34 202.94 98.17 201.74 94.99 C 201.18 92.99 202.01 90.87 203.73 89.75 Z" />
<path fill="#3ebcbd" d=" M 83.35 90.49 C 85.79 88.89 89.16 90.27 90.10 92.94 C 91.06 95.86 91.11 99.24 90.07 102.15 C 88.82 105.42 83.82 105.86 82.08 102.82 C 80.07 99.07 79.73 93.38 83.35 90.49 Z" />
<path fill="#3ebcbd" d=" M 116.03 92.07 C 117.92 89.75 121.14 90.19 123.79 90.17 C 123.83 94.53 123.77 98.89 123.89 103.25 C 121.63 103.91 118.96 104.80 116.94 103.10 C 113.92 100.38 113.83 95.33 116.03 92.07 Z" />
<path fill="#3ebcbd" d=" M 172.34 95.40 C 171.89 92.35 174.79 88.91 177.95 90.02 C 180.22 90.63 180.07 93.40 180.51 95.23 C 177.79 95.28 175.06 95.32 172.34 95.40 Z" />
<path fill="#cd6835" d=" M 52.37 115.42 C 55.69 111.62 59.69 108.52 64.23 106.32 C 63.38 110.05 62.58 113.80 61.75 117.54 C 58.61 116.87 55.49 116.15 52.37 115.42 Z" />
<path fill="#b5282f" d=" M 64.23 106.32 C 67.60 110.19 69.59 115.04 70.60 120.04 C 67.65 119.20 64.70 118.35 61.75 117.54 C 62.58 113.80 63.38 110.05 64.23 106.32 Z" />
<path fill="#fdfdfe" d=" M 44.36 137.30 C 44.67 129.83 47.29 122.49 51.69 116.46 C 54.76 117.14 57.84 117.81 60.91 118.51 C 60.47 119.99 60.03 121.47 59.61 122.95 C 57.26 123.05 54.54 123.52 53.48 125.94 C 52.92 128.71 55.42 130.44 57.39 131.79 C 57.09 133.29 56.81 134.81 56.51 136.31 C 53.48 140.47 51.30 145.21 50.53 150.32 C 49.84 150.20 48.46 149.96 47.77 149.84 L 45.92 149.83 C 44.67 145.78 44.15 141.53 44.36 137.30 Z" />
<path fill="#d9dad7" d=" M 60.91 118.51 C 64.21 119.26 67.43 120.30 70.66 121.33 C 71.82 128.69 70.35 136.42 67.19 143.13 C 65.64 146.41 63.59 149.42 61.14 152.08 C 60.82 152.44 60.17 153.17 59.84 153.53 L 58.88 152.97 C 57.91 152.35 56.85 151.96 55.71 151.79 C 56.85 146.89 58.56 141.62 56.43 136.73 C 56.45 136.62 56.49 136.41 56.51 136.31 C 56.81 134.81 57.09 133.29 57.39 131.79 C 60.06 132.00 63.77 131.79 64.58 128.62 C 64.96 125.65 62.00 123.84 59.61 122.95 C 60.03 121.47 60.47 119.99 60.91 118.51 Z" />
<path fill="#605d62" d=" M 150.13 122.08 C 150.64 121.97 151.66 121.75 152.17 121.64 C 152.01 127.25 154.44 132.41 155.55 137.80 C 156.18 140.77 157.46 143.53 158.57 146.34 C 159.38 147.80 158.27 149.11 157.00 149.76 C 154.94 146.89 153.99 143.47 153.09 140.10 C 151.05 140.75 149.01 141.39 146.95 141.95 C 142.94 142.27 142.67 147.05 140.22 149.40 C 138.73 150.04 137.18 149.41 136.20 148.21 C 140.18 144.43 141.70 138.99 144.59 134.45 C 147.08 130.62 148.17 126.15 150.13 122.08 Z" />
<path fill="#cd6835" d=" M 53.48 125.94 C 54.54 123.52 57.26 123.05 59.61 122.95 C 62.00 123.84 64.96 125.65 64.58 128.62 C 63.77 131.79 60.06 132.00 57.39 131.79 C 55.42 130.44 52.92 128.71 53.48 125.94 Z" />
<path fill="#605d62" d=" M 96.10 122.90 C 96.63 122.77 97.67 122.50 98.19 122.37 C 99.91 124.31 98.89 126.88 98.54 129.12 C 97.31 135.76 96.03 142.45 96.11 149.24 C 95.30 149.34 93.69 149.56 92.88 149.66 C 90.18 144.41 87.04 139.40 84.57 134.03 C 83.34 139.18 83.45 144.52 82.51 149.71 C 82.17 151.28 78.87 151.07 79.54 149.16 C 79.93 141.51 82.45 134.09 82.54 126.39 C 83.51 126.35 84.49 126.28 85.46 126.19 C 86.73 132.57 89.68 138.52 93.33 143.85 C 94.85 136.95 95.05 129.83 96.10 122.90 Z" />
<path fill="#605d62" d=" M 122.95 139.45 C 125.94 133.51 129.88 128.11 132.91 122.19 C 133.51 122.60 134.73 123.42 135.33 123.83 C 133.96 128.11 134.30 132.66 133.72 137.08 C 133.53 141.15 132.76 145.59 135.01 149.26 C 134.24 149.97 133.50 150.93 132.31 150.78 C 130.56 150.32 130.64 148.41 130.46 146.98 C 129.99 141.57 130.97 136.20 131.47 130.83 C 128.62 134.70 126.81 139.19 124.13 143.15 C 123.59 144.20 121.60 144.00 121.11 142.97 C 118.96 139.59 118.14 135.61 117.12 131.79 C 115.18 136.58 114.45 141.95 114.80 147.11 C 114.90 148.34 114.32 149.15 113.06 149.53 C 110.43 148.77 111.11 145.63 111.33 143.57 C 112.56 137.60 113.95 131.66 114.99 125.65 C 116.38 125.79 118.32 125.41 118.94 127.08 C 120.14 131.24 120.90 135.57 122.95 139.45 Z" />
<path fill="#1d4662" d=" M 56.14 125.01 C 58.47 123.26 61.73 124.60 63.00 126.99 C 63.78 130.88 57.85 131.73 55.90 129.08 C 54.53 128.09 54.74 125.87 56.14 125.01 Z" />
<path fill="#605d62" d=" M 105.06 125.04 C 107.07 124.02 108.31 126.25 107.84 128.01 C 106.32 134.52 105.61 141.20 105.56 147.88 C 105.53 149.69 102.14 149.89 102.28 147.88 C 101.88 140.19 103.59 132.54 105.06 125.04 Z" />
<path fill="#605d62" d=" M 189.24 125.31 C 193.98 123.45 200.34 126.46 200.29 131.98 C 200.73 138.40 197.41 144.63 192.55 148.68 C 190.35 150.63 187.17 151.04 184.37 150.47 C 179.80 147.72 179.74 141.55 180.99 136.95 C 182.38 132.40 184.63 127.35 189.24 125.31 Z" />
<path fill="#605d62" d=" M 203.32 128.08 C 205.38 125.53 209.01 125.25 212.03 124.90 C 215.60 124.68 220.14 126.03 221.04 129.97 C 222.21 134.01 218.30 136.93 215.52 139.11 C 218.99 142.13 222.51 145.08 226.04 148.04 C 225.26 148.37 223.70 149.03 222.92 149.35 C 218.73 147.47 215.97 143.59 212.53 140.70 C 211.23 140.60 209.92 140.50 208.63 140.39 C 208.70 139.84 208.86 138.74 208.94 138.19 C 212.56 137.05 216.48 135.57 218.31 131.96 C 217.76 127.52 211.93 126.60 208.52 128.55 C 210.52 135.25 206.38 142.14 208.75 148.83 C 207.25 149.67 204.76 149.20 204.82 147.11 C 204.76 141.38 206.37 135.75 206.19 130.00 C 205.18 129.44 203.25 129.67 203.32 128.08 Z" />
<path fill="#605d62" d=" M 56.04 126.94 C 57.98 124.84 61.10 125.61 62.03 128.24 C 59.97 129.03 57.19 129.29 56.04 126.94 Z" />
<path fill="#605d62" d=" M 172.01 126.69 C 174.70 125.86 177.50 125.58 180.31 125.73 C 180.36 126.59 180.48 128.31 180.53 129.17 C 177.53 129.36 174.16 128.74 171.47 130.35 C 169.84 136.06 170.29 142.20 170.38 148.10 C 169.55 150.69 167.15 148.85 167.17 146.97 C 166.42 141.51 167.84 136.05 167.95 130.58 C 165.14 131.18 162.28 131.53 159.41 131.46 C 159.47 130.82 159.59 129.54 159.65 128.90 C 163.76 128.11 167.99 127.94 172.01 126.69 Z" />
<path fill="#3ebcbd" d=" M 190.30 128.11 C 192.45 126.50 195.30 128.50 196.53 130.39 C 198.19 137.24 194.07 145.71 186.93 147.44 C 184.83 146.53 183.22 144.36 183.45 142.00 C 183.66 136.75 186.15 131.39 190.30 128.11 Z" />
<path fill="#3ebcbd" d=" M 145.93 139.05 C 147.14 135.84 148.48 132.67 150.35 129.79 C 151.05 132.18 151.65 134.61 152.23 137.03 C 150.17 137.83 148.07 138.52 145.93 139.05 Z" />
<path fill="#1d4662" d=" M 50.53 150.32 C 51.30 145.21 53.48 140.47 56.51 136.31 C 56.49 136.41 56.45 136.62 56.43 136.73 C 55.00 143.95 53.13 151.06 51.37 158.20 L 51.02 158.70 C 50.70 156.37 50.45 154.04 50.27 151.69 C 50.33 151.35 50.46 150.67 50.53 150.32 Z" />
<path fill="#1d4662" d=" M 34.00 145.04 C 36.06 140.98 40.36 138.96 44.36 137.30 C 44.15 141.53 44.67 145.78 45.92 149.83 C 45.53 147.32 42.68 148.61 41.03 148.89 C 37.69 149.68 34.93 151.80 32.46 154.08 C 32.39 151.01 32.24 147.72 34.00 145.04 Z" />
<path fill="#151a20" d=" M 51.37 158.20 C 53.13 151.06 55.00 143.95 56.43 136.73 C 58.56 141.62 56.85 146.89 55.71 151.79 C 55.66 152.00 55.56 152.43 55.51 152.64 L 55.48 152.61 C 54.15 154.50 52.80 156.38 51.37 158.20 Z" />
<path fill="#151a20" d=" M 67.19 143.13 C 69.82 146.23 72.46 149.77 72.63 154.01 C 72.91 157.33 71.65 160.58 69.55 163.11 C 68.22 158.53 65.21 154.58 61.14 152.08 C 63.59 149.42 65.64 146.41 67.19 143.13 Z" />
<path fill="#b5282f" d=" M 47.77 149.84 C 48.46 149.96 49.84 150.20 50.53 150.32 C 50.46 150.67 50.33 151.35 50.27 151.69 L 49.43 152.15 C 48.92 152.00 47.91 151.71 47.40 151.56 C 47.49 151.13 47.68 150.27 47.77 149.84 Z" />
<path fill="#fdfdfe" d=" M 43.75 158.23 C 41.44 155.19 43.88 151.47 47.40 151.56 C 47.91 151.71 48.92 152.00 49.43 152.15 C 44.08 154.44 47.33 160.92 49.19 164.60 C 52.12 162.67 55.56 160.66 56.53 157.01 C 56.35 155.51 56.00 154.04 55.48 152.61 L 55.51 152.64 C 55.89 153.03 56.65 153.81 57.03 154.20 C 59.13 156.24 59.33 159.74 56.72 161.44 C 57.42 161.58 58.84 161.87 59.55 162.01 C 57.18 166.65 52.70 170.37 47.68 171.75 C 47.61 174.40 47.17 177.74 43.90 178.16 C 39.46 179.72 37.06 175.03 36.33 171.47 C 34.25 172.53 32.04 174.55 29.56 173.51 C 27.36 172.52 26.58 170.02 25.44 168.09 C 26.24 166.54 27.03 164.99 27.81 163.43 C 29.41 163.47 31.01 163.47 32.60 163.49 C 32.30 161.48 31.47 158.90 33.35 157.38 C 36.22 154.32 41.14 155.39 43.75 158.23 Z" />
<path fill="#cd6835" d=" M 49.43 152.15 L 50.27 151.69 C 50.45 154.04 50.70 156.37 51.02 158.70 L 51.37 158.20 C 52.80 156.38 54.15 154.50 55.48 152.61 C 56.00 154.04 56.35 155.51 56.53 157.01 C 55.56 160.66 52.12 162.67 49.19 164.60 C 47.33 160.92 44.08 154.44 49.43 152.15 Z" />
<path fill="#b5282f" d=" M 55.51 152.64 C 55.56 152.43 55.66 152.00 55.71 151.79 C 56.85 151.96 57.91 152.35 58.88 152.97 C 58.42 153.28 57.49 153.89 57.03 154.20 C 56.65 153.81 55.89 153.03 55.51 152.64 Z" />
<path fill="#605d62" d=" M 77.20 158.15 C 124.79 158.01 172.39 158.18 219.98 158.07 C 221.94 158.29 225.36 157.06 224.96 160.26 C 175.84 160.46 126.72 160.18 77.61 160.41 C 77.51 159.84 77.30 158.72 77.20 158.15 Z" />
<path fill="#d9dad7" d=" M 59.55 162.01 C 62.45 163.27 63.14 166.37 62.61 169.25 C 60.88 169.96 59.23 170.82 57.56 171.66 C 58.12 173.82 59.64 176.64 57.37 178.37 C 55.31 180.72 52.18 179.63 49.64 178.91 C 48.31 180.46 47.22 182.88 44.82 182.74 C 41.20 183.20 38.35 180.65 35.57 178.79 C 35.66 180.41 35.12 182.27 36.18 183.69 C 37.42 185.74 40.03 185.84 42.08 186.53 C 42.21 188.13 42.28 189.75 42.59 191.33 C 46.34 193.94 50.87 191.08 51.83 187.06 C 53.20 189.32 54.32 191.95 56.58 193.47 C 58.70 194.51 60.78 192.89 62.71 192.18 C 62.18 190.76 61.64 189.35 61.11 187.93 C 64.07 187.54 68.57 186.95 68.47 183.02 C 67.53 181.15 65.86 179.83 64.40 178.38 L 64.49 178.27 C 68.43 177.56 72.06 180.79 72.70 184.55 C 72.25 188.74 68.17 190.00 64.67 190.76 C 64.56 193.29 64.27 196.83 61.01 197.08 C 57.27 198.13 54.30 195.59 52.02 193.00 C 48.93 195.01 45.30 196.53 41.62 195.15 C 38.85 194.45 36.64 192.27 36.11 189.44 C 34.31 190.70 32.15 190.81 30.04 190.91 C 29.22 189.90 28.37 188.91 27.65 187.83 C 27.43 186.31 28.44 184.95 28.88 183.54 C 26.23 182.82 23.78 181.54 22.22 179.20 C 24.52 175.82 24.29 171.81 23.43 168.01 C 24.66 166.27 26.09 164.69 27.81 163.43 C 27.03 164.99 26.24 166.54 25.44 168.09 C 26.58 170.02 27.36 172.52 29.56 173.51 C 32.04 174.55 34.25 172.53 36.33 171.47 C 37.06 175.03 39.46 179.72 43.90 178.16 C 47.17 177.74 47.61 174.40 47.68 171.75 C 52.70 170.37 57.18 166.65 59.55 162.01 Z" />
<path fill="#bdc0bb" d=" M 16.24 170.12 C 17.02 167.06 20.54 166.09 23.29 167.01 L 23.43 168.01 C 24.29 171.81 24.52 175.82 22.22 179.20 C 23.78 181.54 26.23 182.82 28.88 183.54 C 28.44 184.95 27.43 186.31 27.65 187.83 C 28.37 188.91 29.22 189.90 30.04 190.91 C 26.09 193.03 21.17 190.13 20.36 185.93 C 16.46 186.59 11.40 184.53 11.38 180.00 C 12.31 176.47 16.22 175.44 19.43 175.46 C 18.04 173.95 15.64 172.52 16.24 170.12 Z" />
<path fill="#fdfdfe" d=" M 57.56 171.66 C 59.23 170.82 60.88 169.96 62.61 169.25 C 67.07 169.81 67.24 175.57 64.49 178.27 L 64.40 178.38 C 65.86 179.83 67.53 181.15 68.47 183.02 C 68.57 186.95 64.07 187.54 61.11 187.93 C 61.64 189.35 62.18 190.76 62.71 192.18 C 60.78 192.89 58.70 194.51 56.58 193.47 C 54.32 191.95 53.20 189.32 51.83 187.06 C 50.87 191.08 46.34 193.94 42.59 191.33 C 42.28 189.75 42.21 188.13 42.08 186.53 C 40.03 185.84 37.42 185.74 36.18 183.69 C 35.12 182.27 35.66 180.41 35.57 178.79 C 38.35 180.65 41.20 183.20 44.82 182.74 C 47.22 182.88 48.31 180.46 49.64 178.91 C 52.18 179.63 55.31 180.72 57.37 178.37 C 59.64 176.64 58.12 173.82 57.56 171.66 Z" />
<path fill="#bdc0bb" d=" M 72.70 184.55 C 75.94 186.01 79.51 188.87 78.68 192.89 C 78.17 196.91 73.42 197.92 70.05 197.59 C 70.75 199.01 72.73 200.76 71.42 202.43 C 68.64 204.66 64.94 202.78 62.00 201.82 C 59.65 201.22 58.67 203.94 56.82 204.74 C 53.53 205.39 50.03 204.54 47.71 202.06 C 47.67 201.32 47.58 199.84 47.53 199.10 C 44.98 200.11 42.07 200.19 40.22 197.84 C 40.69 196.94 41.16 196.05 41.62 195.15 C 45.30 196.53 48.93 195.01 52.02 193.00 C 54.30 195.59 57.27 198.13 61.01 197.08 C 64.27 196.83 64.56 193.29 64.67 190.76 C 68.17 190.00 72.25 188.74 72.70 184.55 Z" />
</svg>
